<?xml version="1.0" standalone="no"?>
<!DOCTYPE svg PUBLIC "-//W3C//DTD SVG 20010904//EN"
 "http://www.w3.org/TR/2001/REC-SVG-20010904/DTD/svg10.dtd">
<svg version="1.0" xmlns="http://www.w3.org/2000/svg"
 width="260.000000pt" height="260.000000pt" viewBox="0 0 260.000000 260.000000"
 preserveAspectRatio="xMidYMid meet">
<metadata>
Created by potrace 1.14, written by Peter Selinger 2001-2017
</metadata>
<g transform="translate(0.000000,260.000000) scale(0.100000,-0.100000)"
fill="#000000" stroke="none">
<path d="M1135 2591 c-4 -3 -18 -7 -33 -8 -15 -1 -40 -5 -57 -9 -16 -3 -37 -8
-45 -9 -25 -4 -74 -17 -85 -24 -10 -5 -13 -6 -45 -14 -37 -8 -60 -19 -60 -28
0 -6 -4 -8 -8 -5 -5 3 -29 -5 -55 -18 -25 -13 -48 -21 -51 -18 -4 3 -6 0 -6
-6 0 -7 -4 -12 -9 -12 -17 0 -141 -82 -141 -93 0 -6 -3 -8 -6 -4 -4 3 -12 1
-20 -6 -7 -7 -27 -23 -45 -37 -38 -31 -129 -118 -129 -124 0 -2 -20 -26 -45
-53 -25 -26 -45 -53 -45 -58 0 -6 -10 -21 -23 -35 -13 -14 -34 -46 -47 -72
-13 -27 -27 -48 -32 -48 -4 0 -7 -3 -6 -7 1 -5 -4 -21 -11 -38 -7 -16 -12 -32
-11 -34 1 -2 -3 -7 -10 -11 -6 -4 -12 -13 -13 -21 -2 -8 -6 -20 -10 -26 -5 -7
-6 -13 -2 -13 3 0 -1 -13 -10 -30 -8 -16 -16 -33 -16 -37 -1 -5 -3 -12 -4 -18
-9 -29 -19 -71 -20 -80 0 -5 -4 -15 -8 -22 -4 -6 -4 -18 -1 -27 3 -9 2 -16 -3
-16 -11 0 -16 -62 -16 -230 -1 -143 4 -230 13 -230 3 0 7 -16 8 -37 2 -20 5
-40 8 -45 3 -4 7 -18 10 -30 8 -36 15 -57 34 -103 5 -11 16 -41 26 -68 9 -26
21 -47 27 -47 6 0 7 -3 4 -7 -4 -3 -2 -12 4 -20 6 -7 8 -13 3 -13 -5 0 -4 -4
2 -8 6 -4 25 -33 43 -65 18 -31 38 -63 44 -70 7 -7 23 -28 37 -47 53 -75 230
-253 230 -232 0 4 4 2 8 -4 10 -15 110 -84 122 -84 5 0 10 -3 10 -7 0 -5 20
-17 45 -28 25 -11 45 -23 45 -27 0 -5 3 -7 8 -6 4 1 29 -8 56 -20 26 -12 52
-19 57 -16 5 3 9 1 9 -4 0 -8 27 -18 110 -39 40 -10 45 -12 45 -13 0 -1 14 -3
30 -5 17 -1 47 -7 67 -13 27 -7 38 -7 42 1 3 8 5 7 5 -2 1 -11 4 -11 18 0 12
10 15 11 9 1 -13 -22 268 -9 389 18 55 12 106 27 113 32 6 6 12 8 12 5 0 -3
27 5 60 18 33 13 60 20 60 17 0 -4 4 -2 8 3 4 6 30 21 57 35 28 14 52 27 55
30 3 3 19 12 35 20 33 16 46 26 76 53 10 9 19 15 19 12 0 -6 36 22 71 57 16
16 30 28 33 28 8 0 86 80 78 80 -4 0 0 5 9 10 9 5 36 35 59 67 24 32 51 64 59
71 8 6 12 12 8 12 -4 0 9 25 28 55 19 30 35 57 35 60 0 4 10 21 22 38 13 18
22 33 20 35 -1 1 -2 3 -1 5 0 1 2 11 4 21 2 10 10 23 17 27 7 5 9 9 4 9 -5 0
-4 6 2 12 6 7 11 16 11 21 3 24 6 40 13 57 21 54 39 141 41 192 1 21 5 38 8
38 3 0 6 63 6 140 1 90 -2 140 -9 140 -7 0 -7 5 1 13 6 8 7 17 3 21 -4 4 -8
17 -9 29 0 12 -4 38 -8 57 -3 19 -7 46 -9 60 -1 14 -8 34 -14 46 -6 11 -13 34
-16 49 -3 16 -10 33 -16 39 -5 5 -10 16 -10 23 0 7 -11 37 -25 68 -14 30 -25
58 -24 61 0 4 -4 10 -9 13 -5 3 -17 21 -26 40 -20 37 -76 119 -121 176 -39 48
-171 179 -183 182 -6 1 -23 14 -39 29 -15 14 -41 33 -58 41 -16 9 -32 19 -35
23 -3 3 -25 17 -50 31 -25 13 -48 29 -52 34 -4 6 -8 7 -8 3 0 -3 -28 7 -62 24
-60 29 -88 39 -115 40 -7 1 -13 4 -13 8 0 4 -6 7 -12 8 -27 4 -54 9 -68 15 -8
3 -31 9 -50 12 -19 3 -46 8 -60 11 -37 8 -358 13 -365 5z"/>
</g>
</svg>
